<?xml version="1.0" encoding="utf-8"?>
<!-- Generator: Adobe Illustrator 24.0.2, SVG Export Plug-In . SVG Version: 6.00 Build 0)  -->
<svg version="1.1" id="Layer_1" xmlns="http://www.w3.org/2000/svg" xmlns:xlink="http://www.w3.org/1999/xlink" x="0px" y="0px"
	 viewBox="0 0 200 200" style="enable-background:new 0 0 200 200;" xml:space="preserve">
<style type="text/css">
	.st0{fill:#414B9F;}
	.st1{fill:#FFFFFF;}
</style>
<rect class="st0" width="200" height="200"/>
<path class="st1" d="M148.24,75.89H50.93c-2.82,0-5.1-2.28-5.1-5.1V65.5c0-2.82,2.28-5.1,5.1-5.1h97.31c2.82,0,5.1,2.28,5.1,5.1
	v5.28C153.35,73.61,151.06,75.89,148.24,75.89z"/>
<path class="st1" d="M148.24,105.73H50.93c-2.82,0-5.1-2.28-5.1-5.1v-5.28c0-2.82,2.28-5.1,5.1-5.1h97.31c2.82,0,5.1,2.28,5.1,5.1
	v5.28C153.35,103.45,151.06,105.73,148.24,105.73z"/>
<path class="st1" d="M148.24,135.57H50.93c-2.82,0-5.1-2.28-5.1-5.1v-5.28c0-2.82,2.28-5.1,5.1-5.1h97.31c2.82,0,5.1,2.28,5.1,5.1
	v5.28C153.35,133.29,151.06,135.57,148.24,135.57z"/>
</svg>
